<?xml version="1.0" encoding="UTF-8" standalone="no"?>
<!DOCTYPE svg PUBLIC "-//W3C//DTD SVG 1.1//EN" "http://www.w3.org/Graphics/SVG/1.1/DTD/svg11.dtd">
<svg width="100%" height="100%" viewBox="0 0 6524 4633" version="1.1" xmlns="http://www.w3.org/2000/svg" xmlns:xlink="http://www.w3.org/1999/xlink" xml:space="preserve" xmlns:serif="http://www.serif.com/" style="fill-rule:evenodd;clip-rule:evenodd;stroke-linejoin:round;stroke-miterlimit:2;">
    <g>
        <g transform="matrix(1.416943,0,0,1.889508,-1499.633904,-2054.418287)">
            <path d="M1581.879,2916.964C1581.879,2895.543 1585.63,2874.986 1593.132,2855.296C1600.635,2835.605 1611.239,2817.212 1624.945,2800.118C1638.651,2783.024 1655.098,2767.499 1674.286,2753.542C1693.475,2739.585 1714.683,2727.63 1737.911,2717.677C1761.139,2707.723 1786.171,2700.042 1813.006,2694.632C1839.841,2689.223 1867.83,2686.518 1896.973,2686.518C1926.116,2686.518 1954.105,2689.223 1980.94,2694.632C2007.775,2700.042 2032.879,2707.723 2056.251,2717.677C2079.624,2727.63 2100.976,2739.585 2120.309,2753.542C2139.641,2767.499 2156.161,2783.024 2169.867,2800.118C2183.573,2817.212 2194.177,2835.605 2201.679,2855.296C2209.181,2874.986 2212.932,2895.543 2212.932,2916.964C2212.932,2938.17 2209.181,2958.618 2201.679,2978.309C2194.177,2997.999 2183.573,3016.338 2169.867,3033.324C2156.161,3050.31 2139.641,3065.781 2120.309,3079.738C2100.976,3093.694 2079.624,3105.649 2056.251,3115.603C2032.879,3125.557 2007.775,3133.238 1980.94,3138.648C1954.105,3144.057 1926.116,3146.762 1896.973,3146.762C1867.83,3146.762 1839.841,3144.057 1813.006,3138.648C1786.171,3133.238 1761.139,3125.557 1737.911,3115.603C1714.683,3105.649 1693.475,3093.694 1674.286,3079.738C1655.098,3065.781 1638.651,3050.31 1624.945,3033.324C1611.239,3016.338 1600.635,2997.999 1593.132,2978.309C1585.63,2958.618 1581.879,2938.17 1581.879,2916.964ZM1658.488,2916.964C1658.488,2933.842 1661.302,2949.963 1666.928,2965.326C1672.555,2980.689 1680.562,2995.024 1690.95,3008.332C1701.338,3021.639 1713.817,3033.702 1728.389,3044.522C1742.961,3055.341 1759.047,3064.591 1776.649,3072.273C1794.25,3079.954 1813.222,3085.905 1833.565,3090.124C1853.907,3094.343 1875.043,3096.453 1896.973,3096.453C1919.191,3096.453 1940.471,3094.343 1960.814,3090.124C1981.157,3085.905 2000.201,3079.954 2017.946,3072.273C2035.692,3064.591 2051.851,3055.341 2066.422,3044.522C2080.994,3033.702 2093.474,3021.639 2103.861,3008.332C2114.249,2995.024 2122.256,2980.689 2127.883,2965.326C2133.51,2949.963 2136.323,2933.842 2136.323,2916.964C2136.323,2891.648 2130.047,2868.008 2117.495,2846.045C2104.944,2824.083 2087.847,2804.987 2066.206,2788.758C2044.565,2772.53 2019.245,2759.817 1990.246,2750.621C1961.247,2741.425 1930.156,2736.827 1896.973,2736.827C1864.079,2736.827 1833.132,2741.425 1804.133,2750.621C1775.134,2759.817 1749.886,2772.53 1728.389,2788.758C1706.892,2804.987 1689.868,2824.083 1677.316,2846.045C1664.764,2868.008 1658.488,2891.648 1658.488,2916.964Z" style="fill:url(#_Radial1);fill-rule:nonzero;"/>
            <path d="M2894.823,3137.999L2841.704,3137.999L2545.3,2859.427L2545.3,3137.999L2482.619,3137.999L2482.619,2776.837L2535.384,2776.837L2832.142,3055.941L2832.142,2776.837L2894.823,2776.837L2894.823,3137.999Z" style="fill:url(#_Radial2);fill-rule:nonzero;"/>
            <path d="M3481.964,3057.003L3238.325,3057.003L3192.643,3137.999L3126.067,3137.999L3330.044,2776.837L3390.246,2776.837L3594.222,3137.999L3527.647,3137.999L3481.964,3057.003ZM3261.344,3016.107L3458.946,3016.107L3362.27,2844.555L3360.145,2837.916L3358.02,2844.555L3261.344,3016.107Z" style="fill:url(#_Radial3);fill-rule:nonzero;"/>
            <path d="M4238.379,3137.999L4185.26,3137.999L3888.856,2859.427L3888.856,3137.999L3826.175,3137.999L3826.175,2776.837L3878.94,2776.837L4175.698,3055.941L4175.698,2776.837L4238.379,2776.837L4238.379,3137.999Z" style="fill:url(#_Radial4);fill-rule:nonzero;"/>
            <path d="M4508.066,2916.964C4508.066,2895.543 4511.817,2874.986 4519.319,2855.296C4526.821,2835.605 4537.425,2817.212 4551.131,2800.118C4564.837,2783.024 4581.284,2767.499 4600.473,2753.542C4619.661,2739.585 4640.87,2727.63 4664.098,2717.677C4687.326,2707.723 4712.357,2700.042 4739.192,2694.632C4766.027,2689.223 4794.016,2686.518 4823.159,2686.518C4852.303,2686.518 4880.292,2689.223 4907.127,2694.632C4933.962,2700.042 4959.065,2707.723 4982.438,2717.677C5005.81,2727.63 5027.163,2739.585 5046.495,2753.542C5065.828,2767.499 5082.347,2783.024 5096.053,2800.118C5109.759,2817.212 5120.363,2835.605 5127.866,2855.296C5135.368,2874.986 5139.119,2895.543 5139.119,2916.964C5139.119,2938.17 5135.368,2958.618 5127.866,2978.309C5120.363,2997.999 5109.759,3016.338 5096.053,3033.324C5082.347,3050.31 5065.828,3065.781 5046.495,3079.738C5027.163,3093.694 5005.81,3105.649 4982.438,3115.603C4959.065,3125.557 4933.962,3133.238 4907.127,3138.648C4880.292,3144.057 4852.303,3146.762 4823.159,3146.762C4794.016,3146.762 4766.027,3144.057 4739.192,3138.648C4712.357,3133.238 4687.326,3125.557 4664.098,3115.603C4640.87,3105.649 4619.661,3093.694 4600.473,3079.738C4581.284,3065.781 4564.837,3050.31 4551.131,3033.324C4537.425,3016.338 4526.821,2997.999 4519.319,2978.309C4511.817,2958.618 4508.066,2938.17 4508.066,2916.964ZM4584.675,2916.964C4584.675,2933.842 4587.488,2949.963 4593.115,2965.326C4598.742,2980.689 4606.749,2995.024 4617.137,3008.332C4627.524,3021.639 4640.004,3033.702 4654.576,3044.522C4669.147,3055.341 4685.234,3064.591 4702.835,3072.273C4720.437,3079.954 4739.409,3085.905 4759.751,3090.124C4780.094,3094.343 4801.23,3096.453 4823.159,3096.453C4845.378,3096.453 4866.658,3094.343 4887.001,3090.124C4907.343,3085.905 4926.387,3079.954 4944.133,3072.273C4961.879,3064.591 4978.037,3055.341 4992.609,3044.522C5007.181,3033.702 5019.66,3021.639 5030.048,3008.332C5040.436,2995.024 5048.443,2980.689 5054.07,2965.326C5059.696,2949.963 5062.51,2933.842 5062.51,2916.964C5062.51,2891.648 5056.234,2868.008 5043.682,2846.045C5031.13,2824.083 5014.034,2804.987 4992.393,2788.758C4970.751,2772.53 4945.431,2759.817 4916.432,2750.621C4887.433,2741.425 4856.342,2736.827 4823.159,2736.827C4790.265,2736.827 4759.318,2741.425 4730.319,2750.621C4701.32,2759.817 4676.072,2772.53 4654.576,2788.758C4633.079,2804.987 4616.054,2824.083 4603.503,2846.045C4590.951,2868.008 4584.675,2891.648 4584.675,2916.964Z" style="fill:url(#_Radial5);fill-rule:nonzero;"/>
        </g>
        <g transform="matrix(1,0,0,1,0.297547,0.017591)">
            <g transform="matrix(1.403039,-0.422057,0.422219,1.403577,268.794389,849.239757)">
                <circle cx="1806.5" cy="1085.5" r="61.5" style="fill:url(#_Radial6);"/>
            </g>
            <g transform="matrix(-2.069271,-2.05256,2.05256,-2.069271,4771.956105,6874.959652)">
                <circle cx="1806.5" cy="1085.5" r="61.5" style="fill:url(#_Radial7);"/>
            </g>
            <g transform="matrix(-2.880289,-0.445892,0.445892,-2.880289,7575.552351,4984.408181)">
                <circle cx="1806.5" cy="1085.5" r="61.5" style="fill:url(#_Radial8);"/>
            </g>
            <g transform="matrix(-2.593042,1.330795,-1.330795,-2.593042,8734.261832,1807.659984)">
                <circle cx="1806.5" cy="1085.5" r="61.5" style="fill:url(#_Radial9);"/>
            </g>
            <g transform="matrix(-1.317059,2.600046,-2.600046,-1.317059,7806.264381,-1443.979218)">
                <circle cx="1806.5" cy="1085.5" r="61.5" style="fill:url(#_Radial10);"/>
            </g>
            <g transform="matrix(0.461124,2.877889,-2.877889,0.461124,5145.408824,-3530.64749)">
                <circle cx="1806.5" cy="1085.5" r="61.5" style="fill:url(#_Radial11);"/>
            </g>
            <g transform="matrix(2.063478,2.058383,-2.058383,2.063478,1766.289129,-3656.690577)">
                <circle cx="1806.5" cy="1085.5" r="61.5" style="fill:url(#_Radial12);"/>
            </g>
            <g transform="matrix(2.879021,0.454008,-0.454008,2.879021,-1042.623989,-1774.047789)">
                <circle cx="1806.5" cy="1085.5" r="61.5" style="fill:url(#_Radial13);"/>
            </g>
            <g transform="matrix(2.596782,-1.323482,1.323482,2.596782,-2210.281671,1399.422285)">
                <circle cx="1806.5" cy="1085.5" r="61.5" style="fill:url(#_Radial14);"/>
            </g>
            <g transform="matrix(1.324381,-2.596324,2.596324,1.324381,-1291.451767,4653.663883)">
                <circle cx="1806.5" cy="1085.5" r="61.5" style="fill:url(#_Radial15);"/>
            </g>
            <g transform="matrix(-0.453011,-2.879178,2.879178,-0.453011,1363.512515,6747.822767)">
                <circle cx="1806.5" cy="1085.5" r="61.5" style="fill:url(#_Radial16);"/>
            </g>
            <g transform="matrix(1.158105,-1.449399,1.449399,1.158105,-722.795723,2740.900964)">
                <circle cx="1806.5" cy="1085.5" r="61.5" style="fill:url(#_Radial17);"/>
            </g>
            <g transform="matrix(0.085121,-1.8533,1.8533,0.085121,702.45358,4866.839774)">
                <circle cx="1806.5" cy="1085.5" r="61.5" style="fill:url(#_Radial18);"/>
            </g>
            <g transform="matrix(-1.020369,-1.549456,1.549456,-1.020369,3105.03814,5749.188252)">
                <circle cx="1806.5" cy="1085.5" r="61.5" style="fill:url(#_Radial19);"/>
            </g>
            <g transform="matrix(-1.736198,-0.6539,0.6539,-1.736198,5567.450237,5050.991956)">
                <circle cx="1806.5" cy="1085.5" r="61.5" style="fill:url(#_Radial20);"/>
            </g>
            <g transform="matrix(-1.789,0.49137,-0.49137,-1.789,7149.334995,3038.880623)">
                <circle cx="1806.5" cy="1085.5" r="61.5" style="fill:url(#_Radial21);"/>
            </g>
            <g transform="matrix(-1.158613,1.448994,-1.448994,-1.158613,7246.596516,481.246638)">
                <circle cx="1806.5" cy="1085.5" r="61.5" style="fill:url(#_Radial22);"/>
            </g>
            <g transform="matrix(-0.085771,1.85327,-1.85327,-0.085771,5822.092218,-1645.191442)">
                <circle cx="1806.5" cy="1085.5" r="61.5" style="fill:url(#_Radial23);"/>
            </g>
            <g transform="matrix(1.019826,1.549813,-1.549813,1.019826,3419.816977,-2528.381719)">
                <circle cx="1806.5" cy="1085.5" r="61.5" style="fill:url(#_Radial24);"/>
            </g>
            <g transform="matrix(1.735968,0.654508,-0.654508,1.735968,957.160387,-1831.048283)">
                <circle cx="1806.5" cy="1085.5" r="61.5" style="fill:url(#_Radial25);"/>
            </g>
            <g transform="matrix(1.789172,-0.490743,0.490743,1.789172,-625.429308,180.508642)">
                <circle cx="1806.5" cy="1085.5" r="61.5" style="fill:url(#_Radial26);"/>
            </g>
        </g>
    </g>
    <defs>
        <radialGradient id="_Radial1" cx="0" cy="0" r="1" gradientUnits="userSpaceOnUse" gradientTransform="matrix(0,-371.486278,495.380881,0,3360.898402,2243.342265)"><stop offset="0" style="stop-color:rgb(72,166,220);stop-opacity:1"/><stop offset="1" style="stop-color:rgb(34,67,155);stop-opacity:1"/></radialGradient>
        <radialGradient id="_Radial2" cx="0" cy="0" r="1" gradientUnits="userSpaceOnUse" gradientTransform="matrix(0,-371.486278,495.380881,0,3360.898402,2243.342265)"><stop offset="0" style="stop-color:rgb(72,166,220);stop-opacity:1"/><stop offset="1" style="stop-color:rgb(34,67,155);stop-opacity:1"/></radialGradient>
        <radialGradient id="_Radial3" cx="0" cy="0" r="1" gradientUnits="userSpaceOnUse" gradientTransform="matrix(0,-371.486278,495.380881,0,3360.898402,2243.342265)"><stop offset="0" style="stop-color:rgb(72,166,220);stop-opacity:1"/><stop offset="1" style="stop-color:rgb(34,67,155);stop-opacity:1"/></radialGradient>
        <radialGradient id="_Radial4" cx="0" cy="0" r="1" gradientUnits="userSpaceOnUse" gradientTransform="matrix(0,-371.486278,495.380881,0,3360.898402,2243.342265)"><stop offset="0" style="stop-color:rgb(72,166,220);stop-opacity:1"/><stop offset="1" style="stop-color:rgb(34,67,155);stop-opacity:1"/></radialGradient>
        <radialGradient id="_Radial5" cx="0" cy="0" r="1" gradientUnits="userSpaceOnUse" gradientTransform="matrix(0,-371.486278,495.380881,0,3360.898402,2243.342265)"><stop offset="0" style="stop-color:rgb(72,166,220);stop-opacity:1"/><stop offset="1" style="stop-color:rgb(34,67,155);stop-opacity:1"/></radialGradient>
        <radialGradient id="_Radial6" cx="0" cy="0" r="1" gradientUnits="userSpaceOnUse" gradientTransform="matrix(235.397242,-782.227742,782.527613,235.307036,1806.522458,1086.130092)"><stop offset="0" style="stop-color:rgb(72,166,220);stop-opacity:1"/><stop offset="1" style="stop-color:rgb(34,67,155);stop-opacity:1"/></radialGradient>
        <radialGradient id="_Radial7" cx="0" cy="0" r="1" gradientUnits="userSpaceOnUse" gradientTransform="matrix(289.287459,291.64274,-291.64274,289.287459,1639.644107,917.348113)"><stop offset="0" style="stop-color:rgb(72,166,220);stop-opacity:1"/><stop offset="1" style="stop-color:rgb(34,67,155);stop-opacity:1"/></radialGradient>
        <radialGradient id="_Radial8" cx="0" cy="0" r="1" gradientUnits="userSpaceOnUse" gradientTransform="matrix(62.84399,405.947477,-405.947477,62.84399,1639.615395,917.29199)"><stop offset="0" style="stop-color:rgb(72,166,220);stop-opacity:1"/><stop offset="1" style="stop-color:rgb(34,67,155);stop-opacity:1"/></radialGradient>
        <radialGradient id="_Radial9" cx="0" cy="0" r="1" gradientUnits="userSpaceOnUse" gradientTransform="matrix(-187.562122,365.462955,-365.462955,-187.562122,1639.62512,917.229705)"><stop offset="0" style="stop-color:rgb(72,166,220);stop-opacity:1"/><stop offset="1" style="stop-color:rgb(34,67,155);stop-opacity:1"/></radialGradient>
        <radialGradient id="_Radial10" cx="0" cy="0" r="1" gradientUnits="userSpaceOnUse" gradientTransform="matrix(-366.45011,185.62607,-185.62607,-366.45011,1639.669573,917.185005)"><stop offset="0" style="stop-color:rgb(72,166,220);stop-opacity:1"/><stop offset="1" style="stop-color:rgb(34,67,155);stop-opacity:1"/></radialGradient>
        <radialGradient id="_Radial11" cx="0" cy="0" r="1" gradientUnits="userSpaceOnUse" gradientTransform="matrix(-405.609329,-64.990716,64.990716,-405.609329,1639.731804,917.174936)"><stop offset="0" style="stop-color:rgb(72,166,220);stop-opacity:1"/><stop offset="1" style="stop-color:rgb(34,67,155);stop-opacity:1"/></radialGradient>
        <radialGradient id="_Radial12" cx="0" cy="0" r="1" gradientUnits="userSpaceOnUse" gradientTransform="matrix(-290.108226,-290.826303,290.826303,-290.108226,1639.788084,917.203337)"><stop offset="0" style="stop-color:rgb(72,166,220);stop-opacity:1"/><stop offset="1" style="stop-color:rgb(34,67,155);stop-opacity:1"/></radialGradient>
        <radialGradient id="_Radial13" cx="0" cy="0" r="1" gradientUnits="userSpaceOnUse" gradientTransform="matrix(-63.987793,-405.768756,405.768756,-63.987793,1639.816953,917.259379)"><stop offset="0" style="stop-color:rgb(72,166,220);stop-opacity:1"/><stop offset="1" style="stop-color:rgb(34,67,155);stop-opacity:1"/></radialGradient>
        <radialGradient id="_Radial14" cx="0" cy="0" r="1" gradientUnits="userSpaceOnUse" gradientTransform="matrix(186.53142,-365.990097,365.990097,186.53142,1639.807404,917.321691)"><stop offset="0" style="stop-color:rgb(72,166,220);stop-opacity:1"/><stop offset="1" style="stop-color:rgb(34,67,155);stop-opacity:1"/></radialGradient>
        <radialGradient id="_Radial15" cx="0" cy="0" r="1" gradientUnits="userSpaceOnUse" gradientTransform="matrix(365.925519,-186.658073,186.658073,365.925519,1639.763078,917.366516)"><stop offset="0" style="stop-color:rgb(72,166,220);stop-opacity:1"/><stop offset="1" style="stop-color:rgb(34,67,155);stop-opacity:1"/></radialGradient>
        <radialGradient id="_Radial16" cx="0" cy="0" r="1" gradientUnits="userSpaceOnUse" gradientTransform="matrix(405.790877,63.847358,-63.847358,405.790877,1639.700875,917.37676)"><stop offset="0" style="stop-color:rgb(72,166,220);stop-opacity:1"/><stop offset="1" style="stop-color:rgb(34,67,155);stop-opacity:1"/></radialGradient>
        <radialGradient id="_Radial17" cx="0" cy="0" r="1" gradientUnits="userSpaceOnUse" gradientTransform="matrix(504.164907,-402.840042,402.840042,504.164907,1816.440505,1297.893448)"><stop offset="0" style="stop-color:rgb(72,166,220);stop-opacity:1"/><stop offset="1" style="stop-color:rgb(34,67,155);stop-opacity:1"/></radialGradient>
        <radialGradient id="_Radial18" cx="0" cy="0" r="1" gradientUnits="userSpaceOnUse" gradientTransform="matrix(644.65934,-29.60892,29.60892,644.65934,1816.245083,1297.655625)"><stop offset="0" style="stop-color:rgb(72,166,220);stop-opacity:1"/><stop offset="1" style="stop-color:rgb(34,67,155);stop-opacity:1"/></radialGradient>
        <radialGradient id="_Radial19" cx="0" cy="0" r="1" gradientUnits="userSpaceOnUse" gradientTransform="matrix(538.968923,354.929364,-354.929364,538.968923,1816.22675,1297.348357)"><stop offset="0" style="stop-color:rgb(72,166,220);stop-opacity:1"/><stop offset="1" style="stop-color:rgb(34,67,155);stop-opacity:1"/></radialGradient>
        <radialGradient id="_Radial20" cx="0" cy="0" r="1" gradientUnits="userSpaceOnUse" gradientTransform="matrix(227.455095,603.925933,-603.925933,227.455095,1816.392508,1297.088985)"><stop offset="0" style="stop-color:rgb(72,166,220);stop-opacity:1"/><stop offset="1" style="stop-color:rgb(34,67,155);stop-opacity:1"/></radialGradient>
        <radialGradient id="_Radial21" cx="0" cy="0" r="1" gradientUnits="userSpaceOnUse" gradientTransform="matrix(-170.92011,622.293073,-622.293073,-170.92011,1816.679057,1296.976559)"><stop offset="0" style="stop-color:rgb(72,166,220);stop-opacity:1"/><stop offset="1" style="stop-color:rgb(34,67,155);stop-opacity:1"/></radialGradient>
        <radialGradient id="_Radial22" cx="0" cy="0" r="1" gradientUnits="userSpaceOnUse" gradientTransform="matrix(-504.023723,403.016674,-403.016674,-504.023723,1816.976967,1297.054012)"><stop offset="0" style="stop-color:rgb(72,166,220);stop-opacity:1"/><stop offset="1" style="stop-color:rgb(34,67,155);stop-opacity:1"/></radialGradient>
        <radialGradient id="_Radial23" cx="0" cy="0" r="1" gradientUnits="userSpaceOnUse" gradientTransform="matrix(-644.648925,29.834804,-29.834804,-644.648925,1817.172473,1297.291766)"><stop offset="0" style="stop-color:rgb(72,166,220);stop-opacity:1"/><stop offset="1" style="stop-color:rgb(34,67,155);stop-opacity:1"/></radialGradient>
        <radialGradient id="_Radial24" cx="0" cy="0" r="1" gradientUnits="userSpaceOnUse" gradientTransform="matrix(-539.093255,-354.74049,354.74049,-539.093255,1817.190913,1297.599028)"><stop offset="0" style="stop-color:rgb(72,166,220);stop-opacity:1"/><stop offset="1" style="stop-color:rgb(34,67,155);stop-opacity:1"/></radialGradient>
        <radialGradient id="_Radial25" cx="0" cy="0" r="1" gradientUnits="userSpaceOnUse" gradientTransform="matrix(-227.666694,-603.846197,603.846197,-227.666694,1817.025246,1297.858458)"><stop offset="0" style="stop-color:rgb(72,166,220);stop-opacity:1"/><stop offset="1" style="stop-color:rgb(34,67,155);stop-opacity:1"/></radialGradient>
        <radialGradient id="_Radial26" cx="0" cy="0" r="1" gradientUnits="userSpaceOnUse" gradientTransform="matrix(170.702051,-622.352924,622.352924,170.702051,1816.738737,1297.970985)"><stop offset="0" style="stop-color:rgb(72,166,220);stop-opacity:1"/><stop offset="1" style="stop-color:rgb(34,67,155);stop-opacity:1"/></radialGradient>
    </defs>
</svg>
